<?xml version="1.0" standalone="no"?>
<!DOCTYPE svg PUBLIC "-//W3C//DTD SVG 20010904//EN"
 "http://www.w3.org/TR/2001/REC-SVG-20010904/DTD/svg10.dtd">
<svg version="1.0" xmlns="http://www.w3.org/2000/svg"
 width="256.000000pt" height="256.000000pt" viewBox="0 0 256.000000 256.000000"
 preserveAspectRatio="xMidYMid meet">
<metadata>
Created by potrace 1.11, written by Peter Selinger 2001-2013
</metadata>
<g transform="translate(0.000000,256.000000) scale(0.100000,-0.100000)"
fill="#000000" stroke="none">
<path d="M0 1280 l0 -1280 1280 0 1280 0 0 1280 0 1280 -1280 0 -1280 0 0
-1280z m1130 500 c0 -262 3 -400 10 -400 6 0 114 52 240 115 126 63 232 115
235 115 3 0 5 -40 5 -88 0 -72 -3 -92 -17 -104 -10 -8 -120 -68 -245 -132
l-228 -117 0 -300 0 -299 395 0 395 0 0 -105 0 -105 -515 0 -515 0 0 350 0
350 -110 -55 c-60 -30 -114 -55 -120 -55 -13 0 -13 155 0 180 6 10 60 44 120
76 l110 57 0 459 0 458 120 0 120 0 0 -400z"/>
</g>
</svg>
