<?xml version="1.0" standalone="no"?>
<!DOCTYPE svg PUBLIC "-//W3C//DTD SVG 20010904//EN"
 "http://www.w3.org/TR/2001/REC-SVG-20010904/DTD/svg10.dtd">
<svg version="1.0" xmlns="http://www.w3.org/2000/svg"
 width="100.000000pt" height="100.000000pt" viewBox="0 0 100.000000 100.000000"
 preserveAspectRatio="xMidYMid meet">
<metadata>
Created by potrace 1.11, written by Peter Selinger 2001-2013
</metadata>
<g transform="translate(0.000000,100.000000) scale(0.100000,-0.100000)"
fill="#000000" stroke="none">
<path d="M0 500 l0 -500 500 0 500 0 0 500 0 500 -500 0 -500 0 0 -500z m462
366 c36 -16 40 -15 97 8 l58 25 127 -32 c69 -17 126 -35 126 -38 0 -4 -19 -11
-42 -17 -24 -6 -59 -24 -78 -40 l-35 -30 -6 -228 c-3 -126 -8 -242 -11 -259
-7 -36 -70 -93 -148 -134 l-55 -28 -55 32 c-82 49 -131 96 -138 130 -3 17 -8
133 -11 259 l-6 228 -35 30 c-19 16 -54 34 -77 40 -24 6 -43 13 -43 17 0 4 55
20 123 37 126 32 135 32 209 0z"/>
<path d="M263 856 c-46 -12 -83 -23 -83 -26 0 -3 18 -14 40 -24 75 -36 74 -32
81 -285 4 -124 10 -241 14 -259 8 -36 68 -94 134 -129 l41 -22 0 363 0 364
-49 21 c-58 25 -70 25 -178 -3z m164 -13 l43 -18 0 -337 c0 -186 -3 -338 -7
-338 -13 0 -105 73 -117 92 -21 34 5 31 42 -5 21 -20 41 -37 45 -37 4 0 7 137
7 304 l0 304 -32 11 c-17 6 -46 8 -64 5 l-33 -6 19 -39 c18 -35 20 -59 20
-264 0 -143 -4 -225 -10 -225 -6 0 -10 45 -11 113 0 61 -4 168 -8 236 l-7 123
-36 33 -36 33 57 15 c74 20 79 20 128 0z m-26 -43 c18 -10 19 -24 19 -280 0
-149 -4 -270 -8 -270 -5 0 -16 8 -25 18 -13 15 -17 55 -20 257 -2 132 -7 250
-11 263 -7 17 -5 22 8 22 10 0 26 -5 37 -10z"/>
<path d="M375 779 c6 -18 15 -308 15 -496 0 -7 5 -13 10 -13 6 0 10 92 10 255
0 250 0 254 -21 266 -20 10 -21 9 -14 -12z"/>
<path d="M560 861 l-45 -19 -3 -362 -2 -361 22 6 c28 9 128 85 138 105 25 51
30 103 30 297 0 238 1 241 79 278 22 11 41 22 41 25 0 5 -189 51 -205 50 -5
-1 -30 -9 -55 -19z m137 -18 c58 -14 63 -17 44 -27 -52 -28 -56 -45 -61 -290
-4 -171 -8 -230 -17 -234 -10 -3 -13 46 -13 223 0 205 2 229 20 264 l19 39
-33 6 c-18 3 -47 1 -64 -5 l-32 -11 0 -304 c0 -167 2 -304 5 -304 3 0 23 16
45 36 40 36 64 39 44 6 -12 -19 -104 -92 -116 -92 -5 0 -8 152 -8 338 l0 337
38 17 c48 21 51 21 129 1z m-53 -55 c-4 -13 -9 -132 -11 -264 -4 -241 -4 -241
-28 -264 l-25 -23 0 276 c0 252 2 277 18 286 9 6 25 11 36 11 15 0 17 -4 10
-22z"/>
<path d="M608 789 c-16 -9 -18 -33 -18 -270 0 -171 3 -258 10 -254 6 4 10 91
10 229 0 135 4 235 11 254 14 40 9 54 -13 41z"/>
</g>
</svg>
